<?xml version="1.0" standalone="no"?>
<!DOCTYPE svg PUBLIC "-//W3C//DTD SVG 20010904//EN"
 "http://www.w3.org/TR/2001/REC-SVG-20010904/DTD/svg10.dtd">
<svg version="1.0" xmlns="http://www.w3.org/2000/svg"
 width="600.000000pt" height="600.000000pt" viewBox="0 0 600.000000 600.000000"
 preserveAspectRatio="xMidYMid meet">

<g transform="translate(0.000000,600.000000) scale(0.100000,-0.100000)"
fill="#000000" stroke="none">
<path d="M4352 5337 c-34 -253 -141 -526 -293 -748 -159 -232 -356 -405 -631
-555 -253 -138 -394 -261 -513 -448 -117 -184 -167 -435 -131 -661 18 -119 33
-175 47 -175 12 0 171 114 312 224 256 199 578 506 730 696 88 110 184 254
237 355 54 105 42 64 -32 -112 -178 -424 -392 -759 -629 -988 -108 -104 -184
-159 -301 -216 l-83 -40 280 3 280 3 121 42 c144 49 233 93 331 162 264 186
424 479 489 889 34 215 29 571 -12 852 -35 242 -98 528 -161 724 l-28 89 -13
-96z"/>
<path d="M4690 3233 c0 -46 -44 -184 -85 -270 -194 -398 -663 -687 -1265 -780
-159 -24 -499 -24 -665 1 -702 103 -1223 488 -1341 991 l-14 60 5 -70 c8 -115
55 -256 125 -374 221 -376 686 -646 1249 -727 141 -21 445 -23 581 -6 434 57
811 222 1069 468 149 141 246 287 299 445 30 92 60 264 48 276 -3 4 -6 -3 -6
-14z"/>
<path d="M2432 1839 c-55 -27 -92 -89 -92 -150 0 -67 33 -108 127 -157 44 -22
88 -50 98 -62 18 -20 18 -24 4 -48 -14 -25 -20 -27 -75 -27 -49 0 -68 5 -102
27 l-41 27 -31 -50 c-17 -27 -28 -54 -25 -60 17 -26 113 -62 180 -67 129 -8
210 36 235 128 25 93 -11 149 -135 211 -98 49 -120 68 -110 99 13 42 90 49
157 14 27 -14 28 -14 53 36 l25 50 -42 21 c-64 33 -170 37 -226 8z"/>
<path d="M3560 1700 c0 -68 -1 -70 -25 -70 -23 0 -25 -4 -25 -45 0 -41 2 -45
25 -45 25 0 25 -2 25 -77 0 -151 25 -188 126 -188 34 0 67 5 73 10 6 7 6 25
-2 53 -10 36 -15 42 -38 42 -33 0 -39 14 -39 96 l0 64 40 0 40 0 0 44 c0 44 0
45 -37 48 l-38 3 -3 68 -3 67 -59 0 -60 0 0 -70z"/>
<path d="M3261 1623 c-40 -20 -65 -72 -56 -114 6 -27 59 -79 81 -79 5 0 24 -9
41 -20 22 -13 31 -25 27 -35 -8 -19 -60 -19 -94 0 -14 8 -28 14 -32 15 -6 0
-48 -66 -48 -76 0 -14 91 -44 135 -44 111 0 165 37 165 115 0 58 -26 87 -100
114 -45 17 -60 27 -58 39 4 21 48 27 87 14 26 -9 30 -7 45 25 23 49 12 57 -82
61 -57 2 -86 -2 -111 -15z"/>
<path d="M3905 1626 c-55 -25 -115 -110 -115 -163 0 -37 22 -94 47 -124 73
-86 227 -92 304 -13 l31 32 -40 21 -39 20 -39 -20 c-59 -30 -134 -7 -134 43 0
17 10 18 131 18 l132 0 -7 46 c-8 64 -39 109 -90 133 -49 24 -135 27 -181 7z
m118 -67 c22 -12 37 -28 37 -41 0 -5 -31 -8 -70 -8 -38 0 -70 4 -70 9 0 13 50
51 67 51 8 0 24 -5 36 -11z"/>
<path d="M4393 1621 c-27 -17 -33 -18 -33 -6 0 12 -14 15 -60 15 l-60 0 0
-175 0 -175 60 0 60 0 0 113 c0 86 4 118 16 135 18 26 50 28 82 6 21 -14 22
-22 22 -135 l0 -119 60 0 60 0 0 104 c0 120 9 153 44 162 66 16 86 -20 86
-161 l0 -105 60 0 60 0 0 131 c0 146 -10 183 -59 212 -17 10 -50 17 -80 17
-41 0 -56 -5 -84 -29 l-33 -30 -27 26 c-36 37 -127 44 -174 14z"/>
<path d="M4995 1628 c-48 -26 -65 -51 -65 -93 0 -53 18 -78 78 -103 53 -23 77
-45 67 -62 -9 -15 -62 -12 -97 6 -33 17 -33 17 -64 -39 -15 -28 -15 -28 28
-47 51 -23 144 -26 192 -6 45 19 66 52 66 102 0 54 -27 88 -88 110 -55 20 -77
38 -68 53 9 14 56 14 90 1 24 -9 28 -6 46 29 l19 39 -31 11 c-40 14 -147 14
-173 -1z"/>
<path d="M2746 1598 c9 -18 46 -84 82 -147 l65 -115 -57 -113 c-31 -62 -56
-116 -56 -119 0 -3 30 -4 67 -2 l67 3 133 255 c73 140 133 258 133 263 0 4
-29 7 -65 7 l-66 0 -42 -91 -42 -92 -50 92 -49 91 -68 0 -69 0 17 -32z"/>
</g>
</svg>
